Coordinates
version=1
nRows=17
nColumns=40
inDegrees=yes

Units are S.I. units (second, meters, Newtons, ...)
If the header above contains a line with 'inDegrees', this indicates whether rotational values are in degrees (yes) or radians (no).

endheader
time	pelvis_tilt	pelvis_list	pelvis_rotation	pelvis_tx	pelvis_ty	pelvis_tz	hip_flexion_r	hip_adduction_r	hip_rotation_r	knee_angle_r	knee_angle_r_beta	ankle_angle_r	subtalar_angle_r	mtp_angle_r	hip_flexion_l	hip_adduction_l	hip_rotation_l	knee_angle_l	knee_angle_l_beta	ankle_angle_l	subtalar_angle_l	mtp_angle_l	lumbar_extension	lumbar_bending	lumbar_rotation	arm_flex_r	arm_add_r	arm_rot_r	elbow_flex_r	pro_sup_r	wrist_flex_r	wrist_dev_r	arm_flex_l	arm_add_l	arm_rot_l	elbow_flex_l	pro_sup_l	wrist_flex_l	wrist_dev_l
      5.79000000	    -34.32762241	      0.42898420	      3.11063237	     -0.48664528	      0.64481775	     -0.91147243	     93.17647523	    -12.59437089	      7.92588998	    100.37296755	      1.75183876	     41.90640502	      0.00000000	      0.00000000	     95.14146868	    -12.87686502	      2.84762164	    100.05645424	      1.74631456	     39.50855922	      0.00000000	      0.00000000	    -14.36075019	     -1.91184565	     -3.44855681	      4.05053936	    -44.93284545	     70.51073571	     79.69067922	     87.84695188	      0.00000000	      0.00000000	    -10.86477030	    -46.61473074	     52.74695399	     88.14853871	     87.91419602	      0.00000000	      0.00000000
      5.79500000	    -34.42758383	      0.42367714	      2.88563491	     -0.48525573	      0.64899778	     -0.91079440	     92.74253573	    -12.25832674	      7.80503754	     99.66164789	      1.73942389	     41.77930152	      0.00000000	      0.00000000	     94.70690342	    -12.99513418	      2.87853263	     99.39873314	      1.73483517	     39.41092653	      0.00000000	      0.00000000	    -13.67415952	     -2.01930344	     -3.28923958	      4.15446051	    -44.85584327	     70.56500762	     79.59896807	     87.84617264	      0.00000000	      0.00000000	    -10.76660226	    -46.74579308	     52.85371687	     88.19372967	     87.91716797	      0.00000000	      0.00000000
      5.80000000	    -33.88956861	      0.52539000	      2.71247030	     -0.48259016	      0.65473144	     -0.91053937	     91.53089179	    -12.07767206	      7.72372072	     98.93777601	      1.72678995	     41.65840468	      0.00000000	      0.00000000	     93.40789413	    -13.10881851	      2.68259208	     98.72215244	      1.72302660	     39.50034325	      0.00000000	      0.00000000	    -13.62664958	     -2.16913290	     -3.18662132	      4.55644723	    -44.51361151	     70.96750929	     78.77204521	     87.85000350	      0.00000000	      0.00000000	    -10.18275350	    -46.72692373	     53.48320619	     87.84201594	     87.91972397	      0.00000000	      0.00000000
      5.80500000	    -33.87222846	      0.46632346	      2.70450302	     -0.48073637	      0.65958277	     -0.91037852	     90.88958133	    -12.03179864	      7.51177183	     98.18026504	      1.71356889	     41.47588057	      0.00000000	      0.00000000	     92.78729857	    -12.99657609	      2.71822635	     97.98125490	      1.71009550	     39.33999907	      0.00000000	      0.00000000	    -13.01127431	     -2.15518334	     -3.22443308	      4.60602948	    -44.43928328	     71.01261677	     78.65669488	     87.84653415	      0.00000000	      0.00000000	    -10.11155631	    -46.77515160	     53.59783139	     87.83824414	     87.91927051	      0.00000000	      0.00000000
      5.81000000	    -33.78137433	      0.66408600	      2.90509604	     -0.47894225	      0.66483127	     -0.91106693	     90.24265356	    -12.35814843	      7.50737551	     97.43243049	      1.70051671	     41.20678912	      0.00000000	      0.00000000	     91.94359917	    -12.51387481	      2.51775162	     97.16385025	      1.69582910	     39.33823995	      0.00000000	      0.00000000	    -12.44913993	     -2.31212912	     -3.51006803	      4.90594636	    -44.19057226	     71.41573102	     77.95240935	     87.85558916	      0.00000000	      0.00000000	     -9.55067539	    -46.75784497	     54.30485106	     87.51554848	     87.91312631	      0.00000000	      0.00000000
      5.81500000	    -33.00068353	      0.61367863	      3.27709784	     -0.47571354	      0.67162981	     -0.91193238	     88.60950393	    -12.86300453	      7.14805696	     96.63673845	      1.68662926	     41.08893682	      0.00000000	      0.00000000	     90.36441412	    -11.97633784	      2.49101302	     96.27853203	      1.68037738	     39.12241636	      0.00000000	      0.00000000	    -12.67017908	     -2.14085809	     -3.94123903	      5.17254257	    -43.94424738	     71.58833062	     77.32066598	     87.84070002	      0.00000000	      0.00000000	     -9.04929121	    -46.61243657	     54.74616316	     87.11664175	     87.91284724	      0.00000000	      0.00000000
      5.82000000	    -32.36803471	      0.47368424	      2.59137880	     -0.47251732	      0.67797377	     -0.91014295	     87.11315219	    -11.97196907	      6.81759025	     95.72550665	      1.67072527	     40.96081166	      0.00000000	      0.00000000	     88.98043712	    -12.78857167	      2.51633152	     95.57078785	      1.66802492	     39.17012455	      0.00000000	      0.00000000	    -12.59744328	     -2.20926981	     -3.34250362	      5.46249041	    -43.56735739	     71.88358872	     76.65034019	     87.84054990	      0.00000000	      0.00000000	     -8.71210976	    -46.60106326	     55.09375151	     86.85633273	     87.90428541	      0.00000000	      0.00000000
      5.82500000	    -31.80110414	      0.35039885	      2.53733442	     -0.46972458	      0.68444050	     -0.90983914	     85.74474595	    -11.91378764	      6.41568008	     94.86224288	      1.65565847	     40.71079320	      0.00000000	      0.00000000	     87.66746954	    -12.78851111	      2.57112336	     94.71263506	      1.65304733	     39.11503257	      0.00000000	      0.00000000	    -12.47887950	     -2.10837391	     -3.33742172	      5.75403839	    -43.27047971	     72.18963165	     76.07895706	     87.83781430	      0.00000000	      0.00000000	     -8.26609988	    -46.59238604	     55.59854534	     86.61289228	     87.90781289	      0.00000000	      0.00000000
      5.83000000	    -31.72283829	      0.31174496	      2.80122618	     -0.46757468	      0.69011174	     -0.91041260	     84.94731672	    -12.21240638	      6.16882910	     93.98453724	      1.64033962	     40.50277960	      0.00000000	      0.00000000	     86.88414207	    -12.32576968	      2.60151256	     93.77519121	      1.63668584	     38.97855423	      0.00000000	      0.00000000	    -11.79956216	     -2.01259964	     -3.68845619	      5.90569456	    -43.09321499	     72.44763903	     75.63796950	     87.83503407	      0.00000000	      0.00000000	     -7.89852191	    -46.54803861	     56.11332065	     86.35917025	     87.90905086	      0.00000000	      0.00000000
      5.83500000	    -30.80342933	      0.43317854	      2.81749381	     -0.46397831	      0.69770882	     -0.91063600	     83.13887454	    -12.34096367	      5.95489028	     93.01720975	      1.62345657	     40.29993501	      0.00000000	      0.00000000	     84.98434329	    -12.19960724	      2.33857385	     92.80638116	      1.61977692	     38.96226514	      0.00000000	      0.00000000	    -12.04069081	     -2.10636478	     -3.80280179	      6.18570063	    -42.75366980	     72.72490887	     74.93290088	     87.83556967	      0.00000000	      0.00000000	     -7.37719844	    -46.34801971	     56.62930945	     85.84840085	     87.89039592	      0.00000000	      0.00000000
      5.84000000	    -30.34989408	      0.28626257	      2.51457479	     -0.46116524	      0.70440208	     -0.90977096	     81.84903806	    -11.90889295	      5.61878698	     92.00189568	      1.60573600	     39.98404056	      0.00000000	      0.00000000	     83.75130643	    -12.52240549	      2.35782231	     91.87620000	      1.60354219	     38.87091466	      0.00000000	      0.00000000	    -11.71674405	     -2.03873280	     -3.58013928	      6.43849723	    -42.45032229	     73.09160628	     74.41370139	     87.83253714	      0.00000000	      0.00000000	     -6.95579947	    -46.31720731	     57.12611875	     85.59776965	     87.86957793	      0.00000000	      0.00000000
      5.84500000	    -29.97329904	      0.35716958	      2.74954177	     -0.45837592	      0.71118531	     -0.91046752	     80.68864558	    -12.25534789	      5.37046239	     91.05860511	      1.58927247	     39.63945593	      0.00000000	      0.00000000	     82.51967662	    -12.08068788	      2.25503388	     90.83040936	      1.58528970	     38.70002349	      0.00000000	      0.00000000	    -11.29879470	     -2.04517891	     -3.93835875	      6.65079491	    -42.19236934	     73.34304321	     73.90316576	     87.82371113	      0.00000000	      0.00000000	     -6.50475898	    -46.16314059	     57.66101114	     85.17623878	     87.87027696	      0.00000000	      0.00000000
      5.85000000	    -29.12326133	      0.20686894	      2.48431280	     -0.45460470	      0.71900317	     -0.90980343	     78.82584417	    -11.88272741	      5.02316253	     89.90564123	      1.56914946	     39.31400561	      0.00000000	      0.00000000	     80.73881256	    -12.43739311	      2.17329707	     89.80831219	      1.56745074	     38.57590817	      0.00000000	      0.00000000	    -11.34759508	     -1.94138243	     -3.77364595	      6.87008285	    -41.82943003	     73.64331381	     73.27616721	     87.81919245	      0.00000000	      0.00000000	     -6.14433580	    -45.96342062	     58.05134099	     84.69871729	     87.87203607	      0.00000000	      0.00000000
      5.85500000	    -28.67186352	      0.11585290	      2.32955234	     -0.45167103	      0.72607588	     -0.90963671	     77.53632133	    -11.71199393	      4.69496707	     88.84086020	      1.55056552	     38.92314725	      0.00000000	      0.00000000	     79.45938688	    -12.52457917	      2.13370795	     88.78820203	      1.54964646	     38.40001338	      0.00000000	      0.00000000	    -10.92780256	     -1.85293740	     -3.72191954	      7.16188918	    -41.59734116	     74.15554477	     72.88123386	     87.81738330	      0.00000000	      0.00000000	     -5.60324965	    -45.83346872	     58.78808718	     84.26822476	     87.86646216	      0.00000000	      0.00000000
      5.86000000	    -27.15348962	      0.13887409	      2.20232132	     -0.44693150	      0.73581528	     -0.90955187	     74.88354475	    -11.64744927	      4.33660562	     87.63470904	      1.52951421	     38.49485036	      0.00000000	      0.00000000	     76.69637882	    -12.68627610	      1.78987998	     87.50972893	      1.52733290	     38.38489559	      0.00000000	      0.00000000	    -11.71866277	     -1.83293493	     -3.73349927	      7.49009122	    -41.20225897	     74.46883280	     72.19274466	     87.80755193	      0.00000000	      0.00000000	     -4.99545966	    -45.51274003	     59.29856959	     83.52847102	     87.85247658	      0.00000000	      0.00000000
      5.86500000	    -27.06578053	      0.13236327	      2.31293351	     -0.44450293	      0.74260517	     -0.91008383	     73.99331467	    -11.77256460	      4.11969822	     86.44185412	      1.50869497	     38.13078464	      0.00000000	      0.00000000	     75.79941886	    -12.42406990	      1.70318462	     86.34316231	      1.50697247	     38.11801517	      0.00000000	      0.00000000	    -10.92344445	     -1.78053555	     -3.96984002	      7.50799071	    -41.13327301	     74.54163068	     72.20098968	     87.80820579	      0.00000000	      0.00000000	     -4.85466599	    -45.41230824	     59.46118584	     83.45885543	     87.85530732	      0.00000000	      0.00000000
      5.87000000	    -26.39639428	      0.09793778	      2.48103467	     -0.44106282	      0.75057904	     -0.91077241	     72.39229014	    -12.03131317	      3.69273517	     85.34173915	      1.48949434	     37.45095505	      0.00000000	      0.00000000	     74.17474300	    -12.12470763	      1.67222933	     85.14324247	      1.48602992	     37.92387928	      0.00000000	      0.00000000	    -10.69043350	     -1.64456889	     -4.26018484	      7.81323853	    -40.85066749	     75.05001212	     71.61735314	     87.81233771	      0.00000000	      0.00000000	     -4.25941702	    -45.07898086	     60.31907010	     82.64723050	     87.85305191	      0.00000000	      0.00000000
